<svg width="14" height="12" viewBox="0 0 14 12" fill="none" xmlns="http://www.w3.org/2000/svg">
<path d="M13.1182 6.354C13.1182 6.08838 13.0088 5.83057 12.8291 5.64307L7.74316 0.557128C7.55566 0.369628 7.29785 0.268066 7.03223 0.268066C6.7666 0.268066 6.50879 0.369628 6.3291 0.557128L1.24316 5.64307C1.05566 5.83057 0.946289 6.08838 0.946289 6.354C0.946289 6.61963 1.05566 6.86963 1.24316 7.05713L1.8291 7.64307C2.00879 7.83057 2.2666 7.93994 2.53223 7.93994C2.79785 7.93994 3.05566 7.83057 3.23535 7.64307L5.53223 5.354V10.854C5.53223 11.4165 6.00098 11.7681 6.53223 11.7681H7.53223C8.06348 11.7681 8.53223 11.4165 8.53223 10.854V5.354L10.8291 7.64307C11.0088 7.83057 11.2666 7.93994 11.5322 7.93994C11.7979 7.93994 12.0557 7.83057 12.2432 7.64307L12.8291 7.05713C13.0088 6.86963 13.1182 6.61963 13.1182 6.354Z" fill="#2DCE89"/>
</svg>
