<svg width="16" height="17" viewBox="0 0 16 17" fill="none" xmlns="http://www.w3.org/2000/svg">
<path d="M8.14286 15.4286C8.14286 15.5089 8.08036 15.5714 8 15.5714C7.13393 15.5714 6.42857 14.8661 6.42857 14C6.42857 13.9196 6.49107 13.8571 6.57143 13.8571C6.65179 13.8571 6.71429 13.9196 6.71429 14C6.71429 14.7054 7.29464 15.2857 8 15.2857C8.08036 15.2857 8.14286 15.3482 8.14286 15.4286ZM15.4286 12.8571C14.1071 11.7411 12.5714 9.74107 12.5714 5.42857C12.5714 3.71428 11.1518 1.83928 8.78572 1.49107C8.83036 1.38393 8.85714 1.26786 8.85714 1.14286C8.85714 0.669642 8.47322 0.285713 8 0.285713C7.52679 0.285713 7.14286 0.669642 7.14286 1.14286C7.14286 1.26786 7.16964 1.38393 7.21429 1.49107C4.84821 1.83928 3.42857 3.71428 3.42857 5.42857C3.42857 9.74107 1.89286 11.7411 0.571429 12.8571C0.571429 13.4821 1.08929 14 1.71429 14H5.71429C5.71429 15.2589 6.74107 16.2857 8 16.2857C9.25893 16.2857 10.2857 15.2589 10.2857 14H14.2857C14.9107 14 15.4286 13.4821 15.4286 12.8571Z" fill="white" fill-opacity="0.95"/>
</svg>
