<svg width="48" height="48" viewBox="0 0 48 48" fill="none" xmlns="http://www.w3.org/2000/svg">
<circle cx="24" cy="24" r="24" fill="url(#paint0_linear_244_1151)"/>
<path d="M26.1886 15.5625H21.8136C21.6411 15.5625 21.5011 15.7025 21.5011 15.875V32.125C21.5011 32.2975 21.6411 32.4375 21.8136 32.4375H26.1886C26.3611 32.4375 26.5011 32.2975 26.5011 32.125V15.875C26.5011 15.7025 26.3611 15.5625 26.1886 15.5625Z" fill="white"/>
<path d="M19.0007 26.8125H14.6257C14.4532 26.8125 14.3132 26.9525 14.3132 27.125V32.125C14.3132 32.2975 14.4532 32.4375 14.6257 32.4375H19.0007C19.1732 32.4375 19.3132 32.2975 19.3132 32.125V27.125C19.3132 26.9525 19.1732 26.8125 19.0007 26.8125Z" fill="white"/>
<path d="M33.3755 21.8125H29.0005C28.828 21.8125 28.688 21.9525 28.688 22.125V32.125C28.688 32.2975 28.828 32.4375 29.0005 32.4375H33.3755C33.548 32.4375 33.688 32.2975 33.688 32.125V22.125C33.688 21.9525 33.548 21.8125 33.3755 21.8125Z" fill="white"/>
<defs>
<linearGradient id="paint0_linear_244_1151" x1="0" y1="24" x2="48" y2="24" gradientUnits="userSpaceOnUse">
<stop stop-color="#11CDEF"/>
<stop offset="1" stop-color="#1171EF"/>
</linearGradient>
</defs>
</svg>
