<svg width="48" height="48" viewBox="0 0 48 48" fill="none" xmlns="http://www.w3.org/2000/svg">
<circle cx="24" cy="24" r="24" fill="url(#paint0_linear_244_1168)"/>
<path d="M29.6251 31.5C27.8432 31.5 26.3576 30.9606 25.5626 30.1272V31.1875C25.5626 32.4141 27.347 33.375 29.6251 33.375C31.9032 33.375 33.6876 32.4141 33.6876 31.1875V30.1272C32.8926 30.9606 31.407 31.5 29.6251 31.5Z" fill="white"/>
<path d="M29.6251 29C27.8432 29 26.3576 28.4606 25.5626 27.6272V28.6875C25.5626 29.9141 27.347 30.875 29.6251 30.875C31.9032 30.875 33.6876 29.9141 33.6876 28.6875V27.6272C32.8926 28.4606 31.407 29 29.6251 29Z" fill="white"/>
<path d="M29.6257 23.375C29.9489 23.375 30.2617 23.3934 30.5632 23.4275V20.2337C29.241 20.0937 28.2195 19.0722 28.0798 17.75H19.9217C19.782 19.0722 18.7604 20.0938 17.4382 20.2334V23.3912C18.7604 23.5312 19.782 24.5525 19.9217 25.8747H24.9654C25.2089 24.4297 27.1301 23.375 29.6257 23.375ZM22.1257 21.8125C22.1257 20.7769 22.9651 19.9375 24.0007 19.9375C25.0364 19.9375 25.8757 20.7769 25.8757 21.8125C25.8757 22.8481 25.0364 23.6875 24.0007 23.6875C22.9651 23.6875 22.1257 22.8481 22.1257 21.8125Z" fill="white"/>
<path d="M29.6251 24C27.347 24 25.5626 24.9609 25.5626 26.1875C25.5626 27.4141 27.347 28.375 29.6251 28.375C31.9032 28.375 33.6876 27.4141 33.6876 26.1875C33.6876 24.9609 31.9032 24 29.6251 24Z" fill="white"/>
<path d="M24.9379 26.5H19.6254C19.4529 26.5 19.3129 26.36 19.3129 26.1875C19.3129 24.9403 18.3726 24 17.1254 24C16.9529 24 16.8129 23.86 16.8129 23.6875V19.9375C16.8129 19.765 16.9529 19.625 17.1254 19.625C18.3726 19.625 19.3129 18.6847 19.3129 17.4375C19.3129 17.265 19.4529 17.125 19.6254 17.125H28.3754C28.5479 17.125 28.6879 17.265 28.6879 17.4375C28.6879 18.6847 29.6282 19.625 30.8754 19.625C31.0479 19.625 31.1879 19.765 31.1879 19.9375V23.5262C32.2639 23.7406 33.1401 24.1734 33.6879 24.7481V14.9375C33.6879 14.765 33.5479 14.625 33.3754 14.625H14.6254C14.4529 14.625 14.3129 14.765 14.3129 14.9375V28.6875C14.3129 28.86 14.4529 29 14.6254 29H24.9379V26.5Z" fill="white"/>
<defs>
<linearGradient id="paint0_linear_244_1168" x1="0" y1="24" x2="48" y2="24" gradientUnits="userSpaceOnUse">
<stop stop-color="#2DCE89"/>
<stop offset="1" stop-color="#2DCECC"/>
</linearGradient>
</defs>
</svg>
