<svg width="15" height="16" viewBox="0 0 15 16" fill="none" xmlns="http://www.w3.org/2000/svg">
<path d="M10.7812 1.297L7.73438 2.91418V14.7032L10.7812 13.0861V1.297Z" fill="#5E72E4"/>
<path d="M7.26562 2.91418L4.21875 1.297V13.0861L7.26562 14.7032V2.91418Z" fill="#5E72E4"/>
<path d="M3.75 1.297L0.351562 3.10168C0.28125 3.14856 0.234375 3.21887 0.234375 3.31262V14.5626C0.234375 14.6564 0.28125 14.7267 0.351562 14.7736C0.421875 14.8204 0.515625 14.8204 0.585938 14.7736L3.75 13.0861V1.297Z" fill="#5E72E4"/>
<path d="M14.6484 3.10168L11.25 1.297V13.0861L14.4141 14.7736C14.4844 14.8204 14.5781 14.8204 14.6484 14.7736C14.7188 14.7267 14.7656 14.6564 14.7656 14.5626V3.31262C14.7656 3.21887 14.7188 3.14856 14.6484 3.10168Z" fill="#5E72E4"/>
</svg>
