<svg width="14" height="13" viewBox="0 0 14 13" fill="none" xmlns="http://www.w3.org/2000/svg">
<path d="M14 5C14 2.23438 10.8672 -2.38419e-07 7 -2.38419e-07C3.13281 -2.38419e-07 0 2.24219 0 5C0 6.58594 1.03125 8 2.64063 8.91406C2.27344 10.2188 1.71094 10.6875 1.21875 11.2422C1.10156 11.3828 0.96875 11.5 1.00781 11.6953C1.00781 11.6953 1.00781 11.6953 1.00781 11.7031C1.04688 11.8906 1.21094 12.0156 1.38281 12C1.6875 11.9609 1.99219 11.9063 2.27344 11.8281C3.625 11.4844 4.84375 10.8438 5.86719 9.9375C6.23438 9.97656 6.61719 10 7 10C10.8672 10 14 7.76562 14 5Z" fill="#32325D"/>
</svg>
