<svg width="12" height="12" viewBox="0 0 12 12" fill="none" xmlns="http://www.w3.org/2000/svg">
<path d="M11.4223 5.62943C11.4223 5.38278 11.3207 5.14338 11.1539 4.96927L10.6098 4.42519C10.4357 4.25834 10.1963 4.15677 9.94964 4.15677C9.70299 4.15677 9.46359 4.25834 9.29674 4.42519L7.16392 6.558V1.45086C7.16392 0.943045 6.74316 0.522286 6.23535 0.522286H5.30678C4.79897 0.522286 4.37821 0.943045 4.37821 1.45086V6.558L2.2454 4.42519C2.07854 4.25834 1.83915 4.15677 1.59249 4.15677C1.34584 4.15677 1.10645 4.25834 0.932338 4.42519L0.395508 4.96927C0.221401 5.14338 0.119838 5.38278 0.119838 5.62943C0.119838 5.87608 0.221401 6.11548 0.395508 6.28233L5.11816 11.0122C5.28502 11.1791 5.52441 11.2807 5.77107 11.2807C6.01772 11.2807 6.25712 11.1791 6.43122 11.0122L11.1539 6.28233C11.3207 6.11548 11.4223 5.87608 11.4223 5.62943Z" fill="#FB6340"/>
</svg>
