<svg width="4" height="10" viewBox="0 0 4 10" fill="none" xmlns="http://www.w3.org/2000/svg">
<path d="M3.28823 8.07143C3.28823 7.71652 3.00028 7.42857 2.64537 7.42857H1.35965C1.00474 7.42857 0.716797 7.71652 0.716797 8.07143V9.35714C0.716797 9.71205 1.00474 10 1.35965 10H2.64537C3.00028 10 3.28823 9.71205 3.28823 9.35714V8.07143ZM3.28823 4.64286C3.28823 4.28795 3.00028 4 2.64537 4H1.35965C1.00474 4 0.716797 4.28795 0.716797 4.64286V5.92857C0.716797 6.28348 1.00474 6.57143 1.35965 6.57143H2.64537C3.00028 6.57143 3.28823 6.28348 3.28823 5.92857V4.64286ZM3.28823 1.21429C3.28823 0.859374 3.00028 0.571428 2.64537 0.571428H1.35965C1.00474 0.571428 0.716797 0.859374 0.716797 1.21429V2.5C0.716797 2.85491 1.00474 3.14286 1.35965 3.14286H2.64537C3.00028 3.14286 3.28823 2.85491 3.28823 2.5V1.21429Z" fill="#CED4DA"/>
</svg>
