<svg width="13" height="12" viewBox="0 0 13 12" fill="none" xmlns="http://www.w3.org/2000/svg">
<path d="M2.49902 9.5C2.49902 9.78125 2.27246 10 1.99902 10C1.71777 10 1.49902 9.78125 1.49902 9.5C1.49902 9.22656 1.71777 9 1.99902 9C2.27246 9 2.49902 9.22656 2.49902 9.5ZM3.74902 5.5C3.74902 5.22656 3.52246 5 3.24902 5H0.999023C0.725586 5 0.499023 5.22656 0.499023 5.5V10.5C0.499023 10.7734 0.725586 11 0.999023 11H3.24902C3.52246 11 3.74902 10.7734 3.74902 10.5V5.5ZM12.999 5.5C12.999 4.6875 12.3115 4 11.499 4H9.33496C9.39746 3.75 9.47559 3.67188 9.56152 3.5C9.77246 3.09375 9.99902 2.64062 9.99902 2C9.99902 1.39844 9.99902 -5.96046e-07 8.24902 -5.96046e-07C8.11621 -5.96046e-07 7.99121 0.0546869 7.89746 0.148437C7.56152 0.476562 7.46777 0.960937 7.38184 1.42187C7.28809 1.875 7.20215 2.34375 6.89746 2.64844C6.65527 2.89062 6.38965 3.22656 6.1084 3.58594C5.76465 4.03906 5.01465 4.96875 4.72559 4.99219C4.46777 5.01562 4.24902 5.23437 4.24902 5.49219V10.5C4.24902 10.7734 4.4834 10.9922 4.74902 11C5.02246 11.0078 5.49121 11.1719 5.9834 11.3438C6.82715 11.6328 7.88184 12 8.99902 12H9.13184H9.72559C9.86621 12 9.97559 12 10.0068 12C10.6943 11.9922 11.21 11.7891 11.5459 11.3906C11.8428 11.0391 11.9756 10.5625 11.9287 9.97656C12.124 9.78906 12.2725 9.53125 12.3506 9.24219C12.4365 8.92969 12.4365 8.61719 12.3506 8.32812C12.585 8.01562 12.7021 7.64844 12.6865 7.25781C12.6865 7.14844 12.6553 6.91406 12.5693 6.66406C12.835 6.35937 12.999 5.91406 12.999 5.5Z" fill="#5E72E4"/>
</svg>
