<svg width="15" height="16" viewBox="0 0 15 16" fill="none" xmlns="http://www.w3.org/2000/svg">
<path d="M14.6953 6.89844C14.4844 5.60937 13.8281 4.64844 12.7969 4.13281C12.1641 3.82812 11.5078 3.6875 10.8047 3.6875C9.84375 3.6875 8.95312 3.96875 8.15625 4.22656C7.54687 4.41406 7.03125 4.57812 6.60938 4.57812C6.25781 4.57812 6 4.46094 5.8125 4.22656C5.64844 4.01562 5.76562 3.6875 5.88281 3.28906C6.02344 2.79687 6.21094 2.16406 5.8125 1.64844C5.57812 1.34375 5.17969 1.17969 4.71094 1.17969C4.24219 1.17969 3.75 1.34375 3.35156 1.60156C1.40625 2.9375 0.234375 5.16406 0.234375 7.55469C0.234375 11.5859 3.51562 14.8672 7.54687 14.8672C10.8047 14.8672 13.6875 12.6875 14.5781 9.54687C14.6484 9.21875 14.8828 8.09375 14.6953 6.89844ZM2.34375 7.0625C2.34375 6.54687 2.76562 6.125 3.28125 6.125C3.79687 6.125 4.21875 6.54687 4.21875 7.0625C4.21875 7.57812 3.79687 8 3.28125 8C2.76562 8 2.34375 7.57812 2.34375 7.0625ZM4.21875 11.2812C3.70312 11.2812 3.28125 10.8594 3.28125 10.3437C3.28125 9.82812 3.70312 9.40625 4.21875 9.40625C4.73437 9.40625 5.15625 9.82812 5.15625 10.3437C5.15625 10.8594 4.73437 11.2812 4.21875 11.2812ZM7.5 12.6875C6.98437 12.6875 6.5625 12.2656 6.5625 11.75C6.5625 11.2344 6.98437 10.8125 7.5 10.8125C8.01562 10.8125 8.4375 11.2344 8.4375 11.75C8.4375 12.2656 8.01562 12.6875 7.5 12.6875ZM10.7812 8.70312C9.86719 8.70312 9.14062 7.97656 9.14062 7.0625C9.14062 6.14844 9.86719 5.42187 10.7812 5.42187C11.6953 5.42187 12.4219 6.14844 12.4219 7.0625C12.4219 7.97656 11.6953 8.70312 10.7812 8.70312Z" fill="black" fill-opacity="0.6"/>
</svg>
