<svg width="15" height="16" viewBox="0 0 15 16" fill="none" xmlns="http://www.w3.org/2000/svg">
<path d="M13.3596 13.8594H12.4221V2.60937C12.4221 2.35039 12.2124 2.14062 11.9534 2.14062H2.81274V1.20312C2.81274 0.944141 3.02251 0.734375 3.28149 0.734375H13.3596C13.6186 0.734375 13.8284 0.944141 13.8284 1.20312V13.3906C13.8284 13.6496 13.6186 13.8594 13.3596 13.8594Z" fill="#F3A4B5"/>
<path d="M11.4846 2.6095H1.64087C1.38188 2.6095 1.17212 2.81926 1.17212 3.07825V14.797C1.17212 15.056 1.38188 15.2657 1.64087 15.2657H11.4846C11.7436 15.2657 11.9534 15.056 11.9534 14.797V3.07825C11.9534 2.81926 11.7436 2.6095 11.4846 2.6095ZM5.62524 11.9845H3.75024C3.62087 11.9845 3.51587 11.8795 3.51587 11.7501C3.51587 11.6207 3.62087 11.5157 3.75024 11.5157H5.62524C5.75462 11.5157 5.85962 11.6207 5.85962 11.7501C5.85962 11.8795 5.75462 11.9845 5.62524 11.9845ZM9.37524 9.172H3.75024C3.62087 9.172 3.51587 9.067 3.51587 8.93762C3.51587 8.80825 3.62087 8.70325 3.75024 8.70325H9.37524C9.50462 8.70325 9.60962 8.80825 9.60962 8.93762C9.60962 9.067 9.50462 9.172 9.37524 9.172ZM9.37524 6.3595H3.75024C3.62087 6.3595 3.51587 6.2545 3.51587 6.12512C3.51587 5.99575 3.62087 5.89075 3.75024 5.89075H9.37524C9.50462 5.89075 9.60962 5.99575 9.60962 6.12512C9.60962 6.2545 9.50462 6.3595 9.37524 6.3595Z" fill="#F3A4B5"/>
</svg>
