<svg width="14" height="14" viewBox="0 0 14 14" fill="none" xmlns="http://www.w3.org/2000/svg">
<path d="M9.38672 6.09167C9.38672 8.02136 7.81641 9.59167 5.88672 9.59167C3.95703 9.59167 2.38672 8.02136 2.38672 6.09167C2.38672 4.16199 3.95703 2.59167 5.88672 2.59167C7.81641 2.59167 9.38672 4.16199 9.38672 6.09167ZM13.3867 12.5917C13.3867 12.326 13.2773 12.0682 13.0977 11.8885L10.418 9.20886C11.0508 8.2948 11.3867 7.20105 11.3867 6.09167C11.3867 3.05261 8.92578 0.591674 5.88672 0.591674C2.84766 0.591674 0.386719 3.05261 0.386719 6.09167C0.386719 9.13074 2.84766 11.5917 5.88672 11.5917C6.99609 11.5917 8.08984 11.2557 9.00391 10.6229L11.6836 13.2948C11.8633 13.4823 12.1211 13.5917 12.3867 13.5917C12.9336 13.5917 13.3867 13.1385 13.3867 12.5917Z" fill="black" fill-opacity="0.6"/>
</svg>
