<svg width="14" height="13" viewBox="0 0 14 13" fill="none" xmlns="http://www.w3.org/2000/svg">
<path d="M14 5C14 4.86719 13.9453 4.74219 13.8516 4.64844L9.85156 0.648437C9.75781 0.554687 9.63281 0.5 9.5 0.5C9.22656 0.5 9 0.726562 9 0.999999V3H7.25C4.6875 3 1.5 3.45312 0.414063 6.14844C0.0859375 6.97656 0 7.875 0 8.75C0 9.84375 0.546875 11.2734 0.992188 12.2734C1.07813 12.4531 1.16406 12.7031 1.28125 12.8672C1.33594 12.9453 1.39063 13 1.5 13C1.65625 13 1.75 12.875 1.75 12.7266C1.75 12.6016 1.71875 12.4609 1.71094 12.3359C1.6875 12.0156 1.67188 11.6953 1.67188 11.375C1.67188 7.64844 3.88281 7 7.25 7H9V9C9 9.27344 9.22656 9.5 9.5 9.5C9.63281 9.5 9.75781 9.44531 9.85156 9.35156L13.8516 5.35156C13.9453 5.25781 14 5.13281 14 5Z" fill="#32325D"/>
</svg>
