<svg width="15" height="16" viewBox="0 0 15 16" fill="none" xmlns="http://www.w3.org/2000/svg">
<path d="M6.9874 2.72649C5.90395 2.48651 4.7723 2.59666 3.75547 3.04107C2.73864 3.48548 1.88914 4.24121 1.32935 5.19938C1.30324 5.24408 1.29267 5.29617 1.29928 5.34752C1.3059 5.39887 1.32933 5.44658 1.36591 5.4832L2.88935 7.00664C3.96913 5.33102 5.36027 3.87805 6.9874 2.72649V2.72649Z" fill="black" fill-opacity="0.6"/>
<path d="M12.7736 8.51337C13.0135 9.59681 12.9034 10.7285 12.459 11.7453C12.0146 12.7621 11.2588 13.6116 10.3007 14.1714C10.256 14.1975 10.2039 14.2081 10.1525 14.2015C10.1012 14.1949 10.0535 14.1714 10.0168 14.1349L8.49341 12.6114C10.169 11.5316 11.622 10.1405 12.7736 8.51337V8.51337Z" fill="black" fill-opacity="0.6"/>
<path d="M3.73883 11.7617C3.43087 11.4545 3.01365 11.282 2.57867 11.282C2.14369 11.282 1.72647 11.4545 1.41851 11.7617C0.663123 12.5169 0.477498 14.6858 0.469295 14.7776C0.466633 14.81 0.470722 14.8425 0.481302 14.8732C0.491883 14.9039 0.508724 14.9321 0.530759 14.9559C0.552794 14.9798 0.579542 14.9988 0.609307 15.0117C0.639072 15.0247 0.671206 15.0313 0.70367 15.0312C0.709998 15.0312 0.716561 15.0312 0.722889 15.0312C0.814764 15.0237 2.98367 14.8381 3.73883 14.0827C4.04624 13.7747 4.21889 13.3574 4.21889 12.9222C4.21889 12.4871 4.04624 12.0697 3.73883 11.7617V11.7617Z" fill="black" fill-opacity="0.6"/>
<path d="M13.3637 6.03128C14.0499 4.51323 14.446 2.88022 14.5316 1.21651C14.5335 1.18366 14.5284 1.15077 14.5168 1.12C14.5051 1.08923 14.4871 1.06126 14.4639 1.03792C14.4405 1.01456 14.4126 0.996341 14.3818 0.984434C14.351 0.972526 14.318 0.967194 14.285 0.968779C12.6166 1.04639 10.9776 1.43775 9.4541 2.12237L13.3637 6.03128Z" fill="black" fill-opacity="0.6"/>
<path d="M9.00679 2.33807C4.38257 4.65253 2.55351 9.05339 2.53007 9.11151C2.51295 9.15414 2.50873 9.20085 2.51794 9.24586C2.52715 9.29086 2.54938 9.33216 2.58187 9.36464L6.13546 12.9185C6.16811 12.9512 6.20969 12.9735 6.25497 12.9826C6.30026 12.9917 6.34723 12.9873 6.38999 12.9698C6.44789 12.9464 10.8274 11.096 13.1473 6.4776L9.00679 2.33807ZM8.20335 8.70323C7.92522 8.70323 7.65334 8.62076 7.42208 8.46623C7.19083 8.31171 7.01058 8.09209 6.90415 7.83513C6.79771 7.57817 6.76986 7.29542 6.82412 7.02263C6.87838 6.74985 7.01232 6.49928 7.20898 6.30261C7.40565 6.10594 7.65622 5.97201 7.92901 5.91775C8.20179 5.86349 8.48454 5.89134 8.7415 5.99777C8.99846 6.10421 9.21809 6.28445 9.37261 6.51571C9.52713 6.74697 9.6096 7.01885 9.6096 7.29698C9.6096 7.66994 9.46145 8.02763 9.19772 8.29135C8.934 8.55507 8.57631 8.70323 8.20335 8.70323Z" fill="black" fill-opacity="0.6"/>
</svg>
