<svg width="15" height="16" viewBox="0 0 15 16" fill="none" xmlns="http://www.w3.org/2000/svg">
<path d="M13.3594 4.01562H1.64062C1.38164 4.01562 1.17188 4.22539 1.17188 4.48438V14.3281C1.17188 14.5871 1.38164 14.7969 1.64062 14.7969H13.3594C13.6184 14.7969 13.8281 14.5871 13.8281 14.3281V4.48438C13.8281 4.22539 13.6184 4.01562 13.3594 4.01562ZM10.0781 8.46875C10.0781 8.59836 9.97313 8.70312 9.84375 8.70312H5.15625C5.02688 8.70312 4.92188 8.59836 4.92188 8.46875V7.29688C4.92188 7.16727 5.02688 7.0625 5.15625 7.0625C5.28562 7.0625 5.39062 7.16727 5.39062 7.29688V8.23438H9.60938V7.29688C9.60938 7.16727 9.71437 7.0625 9.84375 7.0625C9.97313 7.0625 10.0781 7.16727 10.0781 7.29688V8.46875Z" fill="#2DCE89"/>
<path d="M12.1875 2.375H2.8125C2.68312 2.375 2.57812 2.48 2.57812 2.60937V3.54687H12.4219V2.60937C12.4219 2.48 12.3169 2.375 12.1875 2.375Z" fill="#2DCE89"/>
<path d="M10.7812 1.20312H4.21875C4.08938 1.20312 3.98438 1.30812 3.98438 1.4375V1.90625H11.0156V1.4375C11.0156 1.30812 10.9106 1.20312 10.7812 1.20312Z" fill="#2DCE89"/>
</svg>
