<svg width="15" height="16" viewBox="0 0 15 16" fill="none" xmlns="http://www.w3.org/2000/svg">
<path d="M11.0156 1.43751H3.97219C3.57287 1.43831 3.17762 1.51775 2.809 1.6713C2.44038 1.82485 2.10562 2.04951 1.82382 2.33244C1.54202 2.61537 1.31871 2.95103 1.16664 3.32026C1.01456 3.68949 0.936705 4.08506 0.937506 4.48438V4.49657C0.938306 4.89589 1.01775 5.29114 1.1713 5.65976C1.32485 6.02838 1.54951 6.36315 1.83244 6.64494C2.11537 6.92674 2.45103 7.15005 2.82026 7.30212C3.18949 7.4542 3.58506 7.53206 3.98438 7.53126H11.0278C11.4271 7.53046 11.8224 7.45101 12.191 7.29746C12.5596 7.14391 12.8944 6.91925 13.1762 6.63632C13.458 6.3534 13.6813 6.01773 13.8334 5.6485C13.9854 5.27927 14.0633 4.8837 14.0625 4.48438V4.47219C14.0617 4.07287 13.9823 3.67762 13.8287 3.309C13.6752 2.94038 13.4505 2.60562 13.1676 2.32382C12.8846 2.04202 12.549 1.81871 12.1798 1.66664C11.8105 1.51456 11.415 1.43671 11.0156 1.43751ZM3.98438 6.82813C3.52083 6.82813 3.06769 6.69067 2.68226 6.43314C2.29684 6.1756 1.99643 5.80956 1.81904 5.3813C1.64165 4.95303 1.59523 4.48178 1.68567 4.02714C1.7761 3.5725 1.99932 3.15488 2.3271 2.8271C2.65488 2.49932 3.07249 2.2761 3.52714 2.18567C3.98178 2.09523 4.45303 2.14165 4.8813 2.31904C5.30956 2.49643 5.6756 2.79684 5.93314 3.18226C6.19067 3.56769 6.32813 4.02083 6.32813 4.48438C6.32813 5.10598 6.0812 5.70212 5.64166 6.14166C5.20212 6.5812 4.60598 6.82813 3.98438 6.82813Z" fill="#11CDEF"/>
<path d="M11.0278 8.46888H3.98438C3.58506 8.46808 3.18949 8.54594 2.82026 8.69801C2.45103 8.85008 2.11537 9.07339 1.83244 9.35519C1.54951 9.63699 1.32485 9.97175 1.1713 10.3404C1.01775 10.709 0.938306 11.1042 0.937506 11.5036V11.5158C0.936705 11.9151 1.01456 12.3106 1.16664 12.6799C1.31871 13.0491 1.54202 13.3848 1.82382 13.6677C2.10562 13.9506 2.44038 14.1753 2.809 14.3288C3.17762 14.4824 3.57287 14.5618 3.97219 14.5626H11.0156C11.415 14.5634 11.8105 14.4856 12.1798 14.3335C12.549 14.1814 12.8846 13.9581 13.1676 13.6763C13.4505 13.3945 13.6752 13.0598 13.8287 12.6911C13.9823 12.3225 14.0617 11.9273 14.0625 11.5279V11.5158C14.0633 11.1164 13.9854 10.7209 13.8334 10.3516C13.6813 9.9824 13.458 9.64674 13.1762 9.36381C12.8944 9.08088 12.5596 8.85623 12.191 8.70267C11.8224 8.54912 11.4271 8.46968 11.0278 8.46888ZM11.0156 13.8595C10.5521 13.8595 10.0989 13.722 9.71351 13.4645C9.32808 13.207 9.02768 12.8409 8.85029 12.4127C8.67289 11.9844 8.62648 11.5132 8.71692 11.0585C8.80735 10.6039 9.03057 10.1863 9.35835 9.85847C9.68613 9.53069 10.1037 9.30747 10.5584 9.21704C11.013 9.1266 11.4843 9.17302 11.9125 9.35041C12.3408 9.5278 12.7069 9.82821 12.9644 10.2136C13.2219 10.5991 13.3594 11.0522 13.3594 11.5158C13.3594 12.1374 13.1125 12.7335 12.6729 13.173C12.2334 13.6126 11.6372 13.8595 11.0156 13.8595Z" fill="#11CDEF"/>
</svg>
