<svg width="12" height="12" viewBox="0 0 12 12" fill="none" xmlns="http://www.w3.org/2000/svg">
<path d="M11.4223 6.6378C11.4223 6.39115 11.3207 6.15175 11.1539 5.97764L6.43122 1.25499C6.25712 1.08088 6.01772 0.986571 5.77107 0.986571C5.52441 0.986571 5.28502 1.08088 5.11816 1.25499L0.395508 5.97764C0.221401 6.15175 0.119838 6.39115 0.119838 6.6378C0.119838 6.88445 0.221401 7.11659 0.395508 7.2907L0.939593 7.83479C1.10645 8.00889 1.34584 8.11046 1.59249 8.11046C1.83915 8.11046 2.07854 8.00889 2.2454 7.83479L4.37821 5.70923V10.8164C4.37821 11.3387 4.81348 11.6651 5.30678 11.6651H6.23535C6.72866 11.6651 7.16392 11.3387 7.16392 10.8164V5.70923L9.29674 7.83479C9.46359 8.00889 9.70299 8.11046 9.94964 8.11046C10.1963 8.11046 10.4357 8.00889 10.6098 7.83479L11.1539 7.2907C11.3207 7.11659 11.4223 6.88445 11.4223 6.6378Z" fill="#2DCE89"/>
</svg>
